<?xml version="1.0" ?>
<!DOCTYPE svg  PUBLIC '-//W3C//DTD SVG 1.1//EN'  'http://www.w3.org/Graphics/SVG/1.1/DTD/svg11.dtd'>
<svg xmlns="http://www.w3.org/2000/svg" xmlns:xlink="http://www.w3.org/1999/xlink" id="Слой_1" width="32px" height="32px" enable-background="new 0 0 32 32" version="1.1" viewBox="0 0 32 32" xml:space="preserve">
    <g id="Settings">
        <path fill="#fff" d="M1,7h30c0.552,0,1-0.448,1-1c0-0.552-0.448-1-1-1H1C0.448,5,0,5.448,0,6C0,6.552,0.448,7,1,7z"/>
        <path fill="#fff" d="M31,25H1c-0.552,0-1,0.448-1,1c0,0.552,0.448,1,1,1h30c0.552,0,1-0.448,1-1C32,25.448,31.552,25,31,25z"/>
        <path fill="#fff" d="M28,12c-1.862,0-3.413,1.278-3.859,3H1c-0.552,0-1,0.448-1,1c0,0.552,0.448,1,1,1h23.141   c0.446,1.722,1.997,3,3.859,3c2.209,0,4-1.791,4-4C32,13.791,30.209,12,28,12z M28,18c-1.105,0-2-0.896-2-2c0-1.104,0.895-2,2-2   s2,0.895,2,2C30,17.104,29.105,18,28,18z"/>
    </g>
    <g/>
    <g/>
    <g/>
    <g/>
    <g/>
    <g/>
</svg>
